<svg width="24" height="24" viewBox="0 0 24 24" fill="none" xmlns="http://www.w3.org/2000/svg">
<path d="M3.53634 12.5625H11.3878L6.15891 17.8096C5.95906 18.0102 5.63016 18.0264 5.42468 17.8322C4.14417 16.6216 3.26337 14.9897 3.00495 13.1552C2.96061 12.8411 3.22035 12.5625 3.53634 12.5625ZM4.06013 10.4109C4.33278 6.4444 7.49137 3.2748 11.4441 3.0012C11.7458 2.98028 12 3.23562 12 3.5391V10.9687H4.59583C4.2934 10.9687 4.03928 10.7137 4.06013 10.4109ZM13.5882 12.5625V4.68362C13.5882 4.36653 13.8658 4.10588 14.1785 4.15037C18.1216 4.70952 21.1356 8.16633 20.9953 12.3091C20.851 16.5638 17.2004 20.0529 12.9585 19.9994C11.2909 19.9785 9.74996 19.4393 8.48302 18.5374C8.22162 18.3515 8.20442 17.9653 8.43107 17.7379L13.5882 12.5625Z" fill="#666666"/>
</svg>
