<svg width="24" height="24" viewBox="0 0 24 24" fill="none" xmlns="http://www.w3.org/2000/svg">
<path d="M8.73058 19.1538H6.36538C5.47283 19.1538 4.61683 18.7993 3.9857 18.1681C3.35457 17.537 3 16.681 3 15.7885V8.38462H10.1844C9.21192 9.06729 8.41826 9.97427 7.87064 11.0287C7.32301 12.0832 7.03757 13.2541 7.03846 14.4423C7.03846 16.2327 7.67385 17.875 8.73058 19.1538ZM19.1538 7.03846V6.36538C19.1538 5.47283 18.7993 4.61683 18.1681 3.9857C17.537 3.35457 16.681 3 15.7885 3H6.36538C5.47283 3 4.61683 3.35457 3.9857 3.9857C3.35457 4.61683 3 5.47283 3 6.36538V7.03846H19.1538ZM13.601 11.75C13.601 11.5269 13.6896 11.3129 13.8474 11.1551C14.0052 10.9973 14.2192 10.9087 14.4423 10.9087C14.6654 10.9087 14.8794 10.9973 15.0372 11.1551C15.195 11.3129 15.2837 11.5269 15.2837 11.75C15.2837 11.9731 15.195 12.1871 15.0372 12.3449C14.8794 12.5027 14.6654 12.5913 14.4423 12.5913C14.2192 12.5913 14.0052 12.5027 13.8474 12.3449C13.6896 12.1871 13.601 11.9731 13.601 11.75ZM15.1154 17.1346C15.1154 17.3131 15.0445 17.4843 14.9182 17.6106C14.792 17.7368 14.6208 17.8077 14.4423 17.8077C14.2638 17.8077 14.0926 17.7368 13.9664 17.6106C13.8401 17.4843 13.7692 17.3131 13.7692 17.1346V14.4423C13.7692 14.2638 13.8401 14.0926 13.9664 13.9664C14.0926 13.8401 14.2638 13.7692 14.4423 13.7692C14.6208 13.7692 14.792 13.8401 14.9182 13.9664C15.0445 14.0926 15.1154 14.2638 15.1154 14.4423V17.1346ZM8.38462 14.4423C8.38462 13.6468 8.5413 12.8591 8.84573 12.1241C9.15016 11.3892 9.59636 10.7214 10.1589 10.1589C10.7214 9.59636 11.3892 9.15016 12.1241 8.84573C12.8591 8.5413 13.6468 8.38462 14.4423 8.38462C15.2378 8.38462 16.0255 8.5413 16.7605 8.84573C17.4954 9.15016 18.1632 9.59636 18.7257 10.1589C19.2883 10.7214 19.7345 11.3892 20.0389 12.1241C20.3433 12.8591 20.5 13.6468 20.5 14.4423C20.5 16.0489 19.8618 17.5897 18.7257 18.7257C17.5897 19.8618 16.0489 20.5 14.4423 20.5C12.8357 20.5 11.2949 19.8618 10.1589 18.7257C9.02283 17.5897 8.38462 16.0489 8.38462 14.4423ZM9.73077 14.4423C9.73077 15.6919 10.2272 16.8903 11.1107 17.7739C11.9943 18.6575 13.1927 19.1538 14.4423 19.1538C15.6919 19.1538 16.8903 18.6575 17.7739 17.7739C18.6575 16.8903 19.1538 15.6919 19.1538 14.4423C19.1538 13.1927 18.6575 11.9943 17.7739 11.1107C16.8903 10.2272 15.6919 9.73077 14.4423 9.73077C13.1927 9.73077 11.9943 10.2272 11.1107 11.1107C10.2272 11.9943 9.73077 13.1927 9.73077 14.4423Z" fill="#666666"/>
</svg>
