<svg width="24" height="24" viewBox="0 0 24 24" fill="none" xmlns="http://www.w3.org/2000/svg">
<path d="M17.0287 13.0587L9.67665 11.9291L10.6715 16.1179L17.0287 13.0587ZM17.3268 12.7157L11.5461 4.96612L9.65788 11.5574L17.3268 12.7157ZM9.29984 11.4674L3.24234 4L11.175 4.91482L9.29984 11.4674ZM6.36099 8.37242L3 5.31464H3.88337L6.36099 8.37242ZM19.1316 8.95078L17.7094 12.6739L15.4027 9.59703L19.1316 8.95078ZM11.5685 16.0666L17.1502 13.9041L17.3868 13.2176L11.5685 16.0666ZM6.91291 20L9.30453 11.9019L10.5168 17.1721L6.91291 20ZM19.4725 8.97894L18.8846 10.5159L21 10.4807L19.4725 8.97894Z" fill="#4f4f4f"/>
</svg>
