<svg width="24" height="24" viewBox="0 0 24 24" fill="none" xmlns="http://www.w3.org/2000/svg">
<path d="M16.4222 16.868H20.1244C20.2744 16.868 20.3944 16.748 20.3944 16.598L20.3942 5.27C20.3942 5.12 20.2742 5 20.1242 5H15.8162C14.2742 5.02397 12.5192 6.07102 12.1531 6.29898V18.407C13.1161 17.762 14.4181 17.294 15.1471 17.063C15.5611 16.9371 15.9871 16.868 16.4221 16.868L16.4222 16.868ZM13.8031 7.40617H19.3409C19.4249 7.40617 19.4938 7.47514 19.4938 7.55912C19.4938 7.64309 19.4249 7.71206 19.3409 7.71206L13.8031 7.7122C13.7191 7.7122 13.6501 7.64322 13.6501 7.55925C13.6501 7.47514 13.7191 7.40617 13.8031 7.40617ZM13.1041 8.96308H19.5001C19.5841 8.96308 19.653 9.03206 19.653 9.11603C19.653 9.2 19.5841 9.26898 19.5001 9.26898L13.1041 9.26911C13.0201 9.26911 12.9511 9.20014 12.9511 9.11616C12.9511 9.03219 13.0201 8.96309 13.1041 8.96309V8.96308ZM13.1041 10.5201H19.5001C19.5841 10.5201 19.653 10.5891 19.653 10.6731C19.653 10.7601 19.5841 10.8291 19.5001 10.8291H13.1041C13.0201 10.8291 12.9511 10.7601 12.9511 10.6731C12.9511 10.5891 13.0201 10.5201 13.1041 10.5201ZM13.1041 12.0772H19.5001C19.5841 12.0772 19.653 12.1462 19.653 12.2332C19.653 12.3172 19.5841 12.3862 19.5001 12.3862H13.1041C13.0201 12.3862 12.9511 12.3172 12.9511 12.2332C12.9511 12.1462 13.0201 12.0772 13.1041 12.0772ZM13.1041 13.6372H19.5001C19.5841 13.6372 19.653 13.7062 19.653 13.7901C19.653 13.8741 19.5841 13.9431 19.5001 13.9431H13.1041C13.0201 13.9431 12.9511 13.8741 12.9511 13.7901C12.9511 13.7062 13.0201 13.6372 13.1041 13.6372ZM12.9511 15.3472C12.9511 15.2632 13.0201 15.1942 13.1041 15.1942H19.5001C19.5841 15.1942 19.653 15.2632 19.653 15.3472C19.653 15.4312 19.5841 15.5001 19.5001 15.5001H13.1041C13.0201 15.4972 12.9511 15.4281 12.9511 15.3472Z" fill="black"/>
<path d="M20.6969 6.68V16.6009C20.6969 16.9189 20.439 17.177 20.124 17.177H16.4218C16.0197 17.177 15.6239 17.2369 15.2397 17.3599C14.4658 17.6059 13.0318 18.122 12.0987 18.8239C12.0837 18.8359 12.0658 18.8449 12.0417 18.8509C12.0296 18.8539 12.0146 18.8569 12.0027 18.8569C11.9848 18.8569 11.9667 18.854 11.9487 18.848C11.9398 18.845 11.9308 18.839 11.9248 18.8359C11.9187 18.833 11.9158 18.8299 11.9127 18.8269C11.9098 18.824 11.9037 18.8209 11.9006 18.818C10.9617 18.119 9.53668 17.6059 8.76563 17.36C8.38461 17.2371 7.98563 17.1771 7.58356 17.1771L3.87864 17.177C3.56364 17.177 3.30569 16.919 3.30569 16.6009V6.68001H2.39966V18.5178L7.44583 18.4399C8.42685 18.4399 9.36878 18.6259 10.2479 18.9978C10.8329 19.2468 11.3489 19.5078 11.7779 19.7808C12.0419 19.9518 12.3658 19.9518 12.63 19.7808C13.056 19.5078 13.587 19.2378 14.1629 18.9978C15.0359 18.6258 15.9809 18.4399 16.9619 18.4399H21.5997V6.67989L20.6969 6.68Z" fill="black"/>
<path d="M3.87912 16.868H7.58129C8.01336 16.868 8.44526 16.937 8.85631 17.0659C9.58235 17.2939 10.8903 17.7649 11.8503 18.4099V6.305C11.4842 6.07397 9.72926 5.02707 8.18719 5.00293H3.87919C3.72919 5.00293 3.60919 5.12293 3.60919 5.27293V16.6009C3.60919 16.748 3.73227 16.868 3.87919 16.868L3.87912 16.868ZM4.66221 7.40617H10.2C10.284 7.40617 10.353 7.47514 10.353 7.55912C10.353 7.64309 10.284 7.71206 10.2 7.71206L4.66221 7.7122C4.57824 7.7122 4.50926 7.64322 4.50926 7.55925C4.51221 7.47514 4.5781 7.40617 4.66221 7.40617ZM4.50618 8.96309H10.9022C10.9862 8.96309 11.0551 9.03206 11.0551 9.11603C11.0551 9.2 10.9862 9.26898 10.9022 9.26898L4.50618 9.26911C4.42221 9.26911 4.35324 9.20014 4.35324 9.11616C4.3531 9.03219 4.42221 8.96309 4.50618 8.96309V8.96309ZM4.50618 10.5201H10.9022C10.9862 10.5201 11.0551 10.5891 11.0551 10.6731C11.0551 10.7601 10.9862 10.8291 10.9022 10.8291H4.50618C4.42221 10.8291 4.35324 10.7601 4.35324 10.6731C4.3531 10.5891 4.42221 10.5201 4.50618 10.5201ZM4.50618 12.0772H10.9022C10.9862 12.0772 11.0551 12.1462 11.0551 12.2332C11.0551 12.3172 10.9862 12.3862 10.9022 12.3862H4.50618C4.42221 12.3862 4.35324 12.3172 4.35324 12.2332C4.3531 12.1462 4.42221 12.0772 4.50618 12.0772ZM4.50618 13.6372H10.9022C10.9862 13.6372 11.0551 13.7062 11.0551 13.7901C11.0551 13.8741 10.9862 13.9431 10.9022 13.9431H4.50618C4.42221 13.9431 4.35324 13.8741 4.35324 13.7901C4.3531 13.7062 4.42221 13.6372 4.50618 13.6372ZM4.50618 15.1941H10.9022C10.9862 15.1941 11.0551 15.2631 11.0551 15.347C11.0551 15.431 10.9862 15.5 10.9022 15.5L4.50618 15.5001C4.42221 15.5001 4.35324 15.4312 4.35324 15.3472C4.3531 15.2631 4.42221 15.1941 4.50618 15.1941Z" fill="black"/>
</svg>
