<svg width="24" height="24" viewBox="0 0 24 24" fill="none" xmlns="http://www.w3.org/2000/svg">
<path d="M20.7809 6.31579H3.22185C2.76876 6.31579 2.39978 6.6727 2.39978 7.11081V17.0886C2.39978 17.5266 2.76876 17.8836 3.22185 17.8836H20.7809C21.2339 17.8836 21.5999 17.5266 21.5999 17.0886V7.11081C21.5999 6.67274 21.2339 6.31579 20.7809 6.31579ZM4.20893 14.8389V9.36104C4.91392 9.29502 5.47497 8.75206 5.54687 8.07104H18.4558C18.5248 8.75206 19.0887 9.29501 19.7908 9.36104V14.8389C19.0887 14.9049 18.5248 15.4479 18.4558 16.1289H5.54687C5.47481 15.4479 4.91378 14.9049 4.2088 14.8389H4.20893Z" fill="black"/>
<path d="M12 15.2438C13.734 15.2438 15.144 13.8338 15.144 12.0998C15.144 10.3659 13.734 8.95586 12 8.95586C10.2661 8.95586 8.85608 10.3659 8.85608 12.0998C8.85608 13.8338 10.2661 15.2438 12 15.2438ZM11.943 12.2108C11.484 12.0308 11.199 11.8238 11.199 11.4338C11.199 11.0588 11.4661 10.7767 11.88 10.7078V10.2548H12.159V10.6898C12.429 10.6988 12.612 10.7708 12.744 10.8488L12.63 11.1458C12.5371 11.0919 12.3511 10.9929 12.063 10.9929C11.718 10.9929 11.5859 11.2 11.5859 11.38C11.5859 11.611 11.7539 11.7279 12.1439 11.89C12.6088 12.0789 12.8399 12.3129 12.8399 12.7149C12.8399 13.0689 12.5939 13.402 12.132 13.4799V13.9449H11.847V13.492C11.5859 13.489 11.3159 13.408 11.1599 13.294L11.2679 12.994C11.4299 13.102 11.6639 13.1861 11.9158 13.1861C12.2337 13.1861 12.4497 13.0031 12.4497 12.745C12.45 12.4988 12.276 12.3458 11.943 12.2108L11.943 12.2108Z" fill="black"/>
</svg>
