<svg width="24" height="24" viewBox="0 0 24 24" fill="none" xmlns="http://www.w3.org/2000/svg">
<path d="M10 3H4C3.73478 3 3.48043 3.10536 3.29289 3.29289C3.10536 3.48043 3 3.73478 3 4V10C3 10.2652 3.10536 10.5196 3.29289 10.7071C3.48043 10.8946 3.73478 11 4 11H10C10.2652 11 10.5196 10.8946 10.7071 10.7071C10.8946 10.5196 11 10.2652 11 10V4C11 3.73478 10.8946 3.48043 10.7071 3.29289C10.5196 3.10536 10.2652 3 10 3ZM9 9H5V5H9V9ZM20 3H14C13.7348 3 13.4804 3.10536 13.2929 3.29289C13.1054 3.48043 13 3.73478 13 4V10C13 10.2652 13.1054 10.5196 13.2929 10.7071C13.4804 10.8946 13.7348 11 14 11H20C20.2652 11 20.5196 10.8946 20.7071 10.7071C20.8946 10.5196 21 10.2652 21 10V4C21 3.73478 20.8946 3.48043 20.7071 3.29289C20.5196 3.10536 20.2652 3 20 3ZM19 9H15V5H19V9ZM10 13H4C3.73478 13 3.48043 13.1054 3.29289 13.2929C3.10536 13.4804 3 13.7348 3 14V20C3 20.2652 3.10536 20.5196 3.29289 20.7071C3.48043 20.8946 3.73478 21 4 21H10C10.2652 21 10.5196 20.8946 10.7071 20.7071C10.8946 20.5196 11 20.2652 11 20V14C11 13.7348 10.8946 13.4804 10.7071 13.2929C10.5196 13.1054 10.2652 13 10 13ZM9 19H5V15H9V19ZM20 15C20 15.1978 19.9414 15.3911 19.8315 15.5556C19.7216 15.72 19.5654 15.8482 19.3827 15.9239C19.2 15.9996 18.9989 16.0194 18.8049 15.9808C18.6109 15.9422 18.4327 15.847 18.2929 15.7071C18.153 15.5673 18.0578 15.3891 18.0192 15.1951C17.9806 15.0011 18.0004 14.8 18.0761 14.6173C18.1518 14.4346 18.28 14.2784 18.4444 14.1685C18.6089 14.0586 18.8022 14 19 14C19.2652 14 19.5196 14.1054 19.7071 14.2929C19.8946 14.4804 20 14.7348 20 15ZM16 15C16 15.1978 15.9414 15.3911 15.8315 15.5556C15.7216 15.72 15.5654 15.8482 15.3827 15.9239C15.2 15.9996 14.9989 16.0194 14.8049 15.9808C14.6109 15.9422 14.4327 15.847 14.2929 15.7071C14.153 15.5673 14.0578 15.3891 14.0192 15.1951C13.9806 15.0011 14.0004 14.8 14.0761 14.6173C14.1518 14.4346 14.28 14.2784 14.4444 14.1685C14.6089 14.0586 14.8022 14 15 14C15.2652 14 15.5196 14.1054 15.7071 14.2929C15.8946 14.4804 16 14.7348 16 15ZM16 19C16 19.1978 15.9414 19.3911 15.8315 19.5556C15.7216 19.72 15.5654 19.8482 15.3827 19.9239C15.2 19.9996 14.9989 20.0194 14.8049 19.9808C14.6109 19.9422 14.4327 19.847 14.2929 19.7071C14.153 19.5673 14.0578 19.3891 14.0192 19.1951C13.9806 19.0011 14.0004 18.8 14.0761 18.6173C14.1518 18.4346 14.28 18.2784 14.4444 18.1685C14.6089 18.0586 14.8022 18 15 18C15.2652 18 15.5196 18.1054 15.7071 18.2929C15.8946 18.4804 16 18.7348 16 19ZM20 19C20 19.1978 19.9414 19.3911 19.8315 19.5556C19.7216 19.72 19.5654 19.8482 19.3827 19.9239C19.2 19.9996 18.9989 20.0194 18.8049 19.9808C18.6109 19.9422 18.4327 19.847 18.2929 19.7071C18.153 19.5673 18.0578 19.3891 18.0192 19.1951C17.9806 19.0011 18.0004 18.8 18.0761 18.6173C18.1518 18.4346 18.28 18.2784 18.4444 18.1685C18.6089 18.0586 18.8022 18 19 18C19.2652 18 19.5196 18.1054 19.7071 18.2929C19.8946 18.4804 20 18.7348 20 19Z" fill="#666666"/>
</svg>
