<svg width="24" height="24" viewBox="0 0 24 24" fill="none" xmlns="http://www.w3.org/2000/svg">
<g clip-path="url(#clip0_3_483)">
<path d="M4.03801 15.4601V5.77289C4.03801 5.08634 4.56109 4.52174 5.21621 4.52174H18.7192C19.3743 4.52174 19.8974 5.08634 19.8974 5.77289V15.4601C19.8974 15.6197 19.7687 15.7491 19.61 15.7491H4.32535C4.16665 15.7491 4.03801 15.6197 4.03801 15.4601ZM1.73914 16.5073C1.73914 16.3477 1.86778 16.2183 2.02648 16.2183H22.133C22.2917 16.2183 22.4204 16.3477 22.4204 16.5073V17.8278C22.4204 18.6258 21.9064 19.3043 21.2337 19.3043H2.92593C2.25318 19.3043 1.73914 18.6258 1.73914 17.8278V16.5073ZM10.6473 17.6631C10.2641 17.6631 10.2641 18.241 10.6473 18.241H13.6444C14.0276 18.241 14.0276 17.6631 13.6444 17.6631H10.6473ZM10.4475 12.3402V11.8663C10.4475 11.8147 10.4217 11.7792 10.3701 11.7599L7.11054 10.2897C7.07185 10.2703 7.07185 10.251 7.11054 10.2317L10.3701 8.76147C10.4217 8.74213 10.4475 8.70666 10.4475 8.65508V8.18111C10.4475 8.12307 10.4217 8.09408 10.3701 8.09408L10.3314 8.10375L6.43347 9.92215C6.38833 9.94794 6.36575 9.98341 6.36575 10.0285V10.4928C6.36575 10.538 6.38833 10.5734 6.43347 10.5992L10.3314 12.4176C10.3637 12.4305 10.3911 12.4289 10.4137 12.4128C10.4362 12.3966 10.4475 12.3725 10.4475 12.3402ZM10.6409 13.5493H11.1246C11.1826 13.5493 11.2213 13.5235 11.2406 13.4719L13.3782 6.88502C13.3976 6.81409 13.3718 6.77863 13.3008 6.77863H12.8172C12.7592 6.77863 12.7205 6.80443 12.7012 6.85601L10.5636 13.4429C10.5442 13.5138 10.57 13.5493 10.6409 13.5493ZM13.7941 12.4273L13.8328 12.4176L17.7308 10.5992C17.7759 10.5734 17.7985 10.538 17.7985 10.4928V10.0285C17.7985 9.98341 17.7759 9.94794 17.7308 9.92215L13.8328 8.10375C13.8006 8.09085 13.7732 8.09245 13.7506 8.10857C13.728 8.12469 13.7168 8.14887 13.7168 8.18111V8.65508C13.7168 8.70666 13.7426 8.74213 13.7941 8.76147L17.0537 10.2317C17.0924 10.251 17.0924 10.2703 17.0537 10.2897L13.7941 11.7599C13.7426 11.7792 13.7168 11.8147 13.7168 11.8663V12.3402C13.7168 12.3983 13.7426 12.4273 13.7941 12.4273Z" fill="black"/>
</g>
<defs>
<clipPath id="clip0_3_483">
<rect width="24" height="24" fill="white"/>
</clipPath>
</defs>
</svg>
