<svg width="24" height="24" viewBox="0 0 24 24" fill="none" xmlns="http://www.w3.org/2000/svg">
<path d="M19.7167 3H3.28333C3.20826 3.00022 3.13631 3.03014 3.08323 3.08323C3.03014 3.13631 3.00022 3.20826 3 3.28333V14.0868C3.09229 14.0615 3.18764 14.0491 3.28333 14.05H3.56667V3.56667H19.4333V14.05H19.7167C19.8124 14.0491 19.9077 14.0615 20 14.0868V3.28333C19.9998 3.20826 19.9699 3.13631 19.9168 3.08323C19.8637 3.03014 19.7917 3.00022 19.7167 3Z" fill="#666666"/>
<path d="M13.4834 18.0167C13.7963 18.0167 14.05 17.763 14.05 17.45C14.05 17.137 13.7963 16.8833 13.4834 16.8833C13.1704 16.8833 12.9167 17.137 12.9167 17.45C12.9167 17.763 13.1704 18.0167 13.4834 18.0167Z" fill="#666666"/>
<path d="M19.7167 14.9H3.28333C3.20819 14.9 3.13612 14.9298 3.08299 14.983C3.02985 15.0361 3 15.1082 3 15.1833V19.7167C3 19.7918 3.02985 19.8639 3.08299 19.917C3.13612 19.9701 3.20819 20 3.28333 20H19.7167C19.7918 20 19.8639 19.9701 19.917 19.917C19.9701 19.8639 20 19.7918 20 19.7167V15.1833C20 15.1082 19.9701 15.0361 19.917 14.983C19.8639 14.9298 19.7918 14.9 19.7167 14.9ZM17.45 17.7333H14.5764C14.5147 17.9764 14.3736 18.1919 14.1757 18.3458C13.9777 18.4998 13.7341 18.5833 13.4833 18.5833C13.2326 18.5833 12.989 18.4998 12.791 18.3458C12.593 18.1919 12.452 17.9764 12.3902 17.7333H5.55C5.47486 17.7333 5.40279 17.7035 5.34965 17.6503C5.29652 17.5972 5.26667 17.5251 5.26667 17.45C5.26667 17.3748 5.29652 17.3028 5.34965 17.2496C5.40279 17.1965 5.47486 17.1667 5.55 17.1667H12.3902C12.452 16.9236 12.593 16.7081 12.791 16.5542C12.989 16.4002 13.2326 16.3167 13.4833 16.3167C13.7341 16.3167 13.9777 16.4002 14.1757 16.5542C14.3736 16.7081 14.5147 16.9236 14.5764 17.1667H17.45C17.5251 17.1667 17.5972 17.1965 17.6503 17.2496C17.7035 17.3028 17.7333 17.3748 17.7333 17.45C17.7333 17.5251 17.7035 17.5972 17.6503 17.6503C17.5972 17.7035 17.5251 17.7333 17.45 17.7333Z" fill="#666666"/>
<path d="M9.23335 12.9167C9.28265 12.9167 9.33111 12.9038 9.37391 12.8793L15.3239 9.47932C15.3673 9.45454 15.4033 9.41873 15.4284 9.37554C15.4534 9.33234 15.4666 9.28328 15.4666 9.23333C15.4666 9.18339 15.4534 9.13433 15.4284 9.09113C15.4033 9.04793 15.3673 9.01213 15.3239 8.98734L9.37391 5.58734C9.33082 5.56272 9.28202 5.54985 9.23239 5.55002C9.18277 5.55019 9.13406 5.56338 9.09114 5.58829C9.04821 5.6132 9.01259 5.64895 8.98782 5.69195C8.96305 5.73495 8.95002 5.78371 8.95001 5.83333V12.6333C8.94998 12.6705 8.95729 12.7074 8.97152 12.7418C8.98575 12.7762 9.00662 12.8074 9.03293 12.8337C9.05925 12.8601 9.09049 12.8809 9.12488 12.8952C9.15927 12.9094 9.19613 12.9167 9.23335 12.9167Z" fill="#666666"/>
</svg>
