<svg width="24" height="24" viewBox="0 0 24 24" fill="none" xmlns="http://www.w3.org/2000/svg">
<path d="M14.196 10.4863C14.164 10.4371 14.1471 10.3803 14.1473 10.3224V3.30909C14.1473 3.22712 14.1815 3.1485 14.2425 3.09053C14.3035 3.03256 14.3862 3 14.4724 3C14.5586 3 14.6413 3.03256 14.7023 3.09053C14.7633 3.1485 14.7975 3.22712 14.7975 3.30909V10.2328L15.568 11.4166C15.5907 11.4511 15.606 11.4895 15.6131 11.5296C15.6202 11.5698 15.6188 11.6108 15.6092 11.6504C15.5995 11.6901 15.5817 11.7275 15.5568 11.7606C15.5319 11.7936 15.5003 11.8217 15.464 11.8432C15.4123 11.8737 15.3526 11.8897 15.2917 11.8895C15.2364 11.8896 15.1821 11.8764 15.1337 11.8509C15.0854 11.8255 15.0446 11.7888 15.0153 11.7443L14.196 10.4863ZM12.3169 20.4329H4.37751C4.25013 20.4336 4.12482 20.4023 4.01431 20.3421C3.90379 20.2818 3.81201 20.1949 3.74827 20.09C3.68454 19.9852 3.65114 19.8662 3.65144 19.7451C3.65175 19.6239 3.68577 19.5051 3.75004 19.4005L6.13964 15.2834H12.2063C12.2925 15.2834 12.3752 15.2508 12.4362 15.1929C12.4972 15.1349 12.5314 15.0563 12.5314 14.9743C12.5314 14.8923 12.4972 14.8137 12.4362 14.7557C12.3752 14.6978 12.2925 14.6652 12.2063 14.6652H6.49402L8.92589 10.4677C8.95177 10.4221 8.96518 10.3711 8.96491 10.3193V3.30909C8.96491 3.22712 8.93066 3.1485 8.86968 3.09053C8.80871 3.03256 8.72602 3 8.63979 3C8.55356 3 8.47087 3.03256 8.4099 3.09053C8.34893 3.1485 8.31467 3.22712 8.31467 3.30909V10.2421L3.18433 19.0976C3.06346 19.296 2.99987 19.5213 3 19.7505C3.00013 19.9798 3.06399 20.205 3.18509 20.4033C3.3062 20.6016 3.48027 20.7659 3.68966 20.8797C3.89905 20.9934 4.13635 21.0526 4.37751 21.0511H12.3169C12.4031 21.0511 12.4858 21.0185 12.5468 20.9605C12.6077 20.9026 12.642 20.824 12.642 20.742C12.642 20.66 12.6077 20.5814 12.5468 20.5234C12.4858 20.4655 12.4031 20.4329 12.3169 20.4329ZM13.5068 4.4651C13.5068 4.6485 13.4496 4.82778 13.3424 4.98027C13.2352 5.13277 13.0829 5.25162 12.9047 5.3218C12.7265 5.39199 12.5304 5.41035 12.3412 5.37457C12.152 5.33879 11.9782 5.25047 11.8418 5.12079C11.7054 4.99111 11.6125 4.82588 11.5748 4.64601C11.5372 4.46613 11.5565 4.27969 11.6303 4.11025C11.7042 3.94081 11.8292 3.79599 11.9896 3.6941C12.15 3.59221 12.3385 3.53782 12.5314 3.53782C12.7901 3.53782 13.0382 3.63552 13.2211 3.80942C13.404 3.98332 13.5068 4.21917 13.5068 4.4651ZM12.8566 4.4651C12.8566 4.40397 12.8375 4.34421 12.8018 4.29338C12.766 4.24255 12.7153 4.20293 12.6559 4.17954C12.5964 4.15614 12.5311 4.15002 12.468 4.16195C12.4049 4.17388 12.347 4.20331 12.3015 4.24654C12.2561 4.28977 12.2251 4.34484 12.2126 4.4048C12.2 4.46476 12.2065 4.52691 12.2311 4.58339C12.2557 4.63987 12.2973 4.68814 12.3508 4.72211C12.4043 4.75607 12.4671 4.7742 12.5314 4.7742C12.6177 4.7742 12.7004 4.74163 12.7613 4.68367C12.8223 4.6257 12.8566 4.54708 12.8566 4.4651ZM9.9305 6.93786C9.9305 6.75446 9.98771 6.57518 10.0949 6.42269C10.2021 6.2702 10.3544 6.15134 10.5326 6.08116C10.7108 6.01098 10.9069 5.99261 11.0961 6.02839C11.2853 6.06417 11.4591 6.15249 11.5955 6.28217C11.7319 6.41185 11.8248 6.57708 11.8625 6.75695C11.9001 6.93683 11.8808 7.12327 11.807 7.29271C11.7331 7.46215 11.6081 7.60697 11.4477 7.70886C11.2873 7.81075 11.0988 7.86514 10.9059 7.86514C10.6472 7.86514 10.3991 7.76744 10.2162 7.59354C10.0333 7.41964 9.9305 7.18379 9.9305 6.93786ZM10.5807 6.93786C10.5807 6.99899 10.5998 7.05875 10.6355 7.10958C10.6713 7.16041 10.722 7.20003 10.7814 7.22342C10.8408 7.24682 10.9062 7.25294 10.9693 7.24101C11.0323 7.22908 11.0903 7.19965 11.1357 7.15642C11.1812 7.11319 11.2122 7.05812 11.2247 6.99816C11.2373 6.9382 11.2308 6.87605 11.2062 6.81957C11.1816 6.76309 11.1399 6.71482 11.0865 6.68085C11.033 6.64689 10.9702 6.62876 10.9059 6.62876C10.8196 6.62876 10.7369 6.66133 10.676 6.71929C10.615 6.77726 10.5807 6.85588 10.5807 6.93786ZM13.1817 10.8788C13.1817 11.1692 13.0911 11.453 12.9214 11.6945C12.7517 11.9359 12.5105 12.1241 12.2283 12.2352C11.9462 12.3464 11.6357 12.3754 11.3361 12.3188C11.0365 12.2621 10.7614 12.1223 10.5454 11.917C10.3294 11.7116 10.1823 11.45 10.1227 11.1652C10.0631 10.8804 10.0937 10.5852 10.2106 10.3169C10.3275 10.0487 10.5254 9.81937 10.7794 9.65804C11.0334 9.49671 11.3319 9.41061 11.6374 9.41061C11.8404 9.41061 12.0415 9.44868 12.2291 9.52266C12.4167 9.59664 12.5871 9.70506 12.7305 9.84172C12.874 9.97839 12.9876 10.1406 13.0651 10.3191C13.1425 10.4976 13.1821 10.6888 13.1817 10.8819V10.8788ZM12.5314 10.8788C12.5314 10.7107 12.479 10.5463 12.3808 10.4066C12.2825 10.2668 12.1429 10.1578 11.9795 10.0935C11.8161 10.0292 11.6364 10.0123 11.4629 10.0451C11.2895 10.0779 11.1302 10.1589 11.0052 10.2778C10.8801 10.3966 10.795 10.5481 10.7605 10.713C10.726 10.8779 10.7437 11.0488 10.8114 11.2041C10.879 11.3594 10.9936 11.4922 11.1406 11.5856C11.2877 11.679 11.4605 11.7288 11.6374 11.7288C11.8739 11.7288 12.1008 11.6397 12.2684 11.4809C12.436 11.3222 12.5306 11.1068 12.5314 10.8819V10.8788ZM20.9845 17.447C20.9878 17.4851 20.9878 17.5234 20.9845 17.5614V20.4545C20.9845 21.456 19.1411 22 17.4082 22C15.6753 22 13.8319 21.456 13.8319 20.4545V14.3561C13.8316 14.3143 13.8416 14.273 13.8612 14.2356C14.0042 13.3083 15.7598 12.8106 17.4212 12.8106C19.1541 12.8106 20.9975 13.3546 20.9975 14.3561C21.0008 14.3942 21.0008 14.4324 20.9975 14.4705V17.3883C20.9966 17.4084 20.9923 17.4283 20.9845 17.447ZM14.4821 17.3883C14.4855 17.4078 14.4855 17.4276 14.4821 17.447C14.4821 17.8272 15.6233 18.3743 17.4082 18.3743C19.0858 18.3743 20.1912 17.8921 20.3342 17.5212V15.2834C19.645 15.6914 18.5103 15.9016 17.4082 15.9016C16.306 15.9016 15.1584 15.6821 14.4821 15.2618V17.3883ZM14.4821 14.3561C14.4821 14.7363 15.6233 15.2834 17.4082 15.2834C19.0858 15.2834 20.1912 14.8012 20.3342 14.4303V14.3561C20.3342 14.3561 20.3342 14.3345 20.3342 14.3252C20.2725 13.9481 19.1508 13.4288 17.4082 13.4288C15.6656 13.4288 14.4821 13.9821 14.4821 14.3561ZM20.3342 20.4545V18.3743C19.645 18.7823 18.5103 18.9925 17.4082 18.9925C16.306 18.9925 15.1584 18.7731 14.4821 18.3527V20.4545C14.4821 20.8316 15.6233 21.3818 17.4082 21.3818C19.1931 21.3818 20.3212 20.8471 20.3212 20.4576L20.3342 20.4545Z" fill="#666666"/>
</svg>
