<svg width="24" height="24" viewBox="0 0 24 24" fill="none" xmlns="http://www.w3.org/2000/svg">
<g clip-path="url(#clip0_3_370)">
<path d="M15.0182 9.24182C15.3092 9.24182 15.5273 9.0269 15.5273 8.74033C15.5273 8.45376 15.3092 8.23884 15.0182 8.23884C14.7273 8.23884 14.5092 8.45376 14.5092 8.74033C14.5092 8.99108 14.7273 9.24182 15.0182 9.24182Z" fill="#666666"/>
<path d="M12.0002 7.98809C12.2911 7.98809 12.5093 7.77316 12.5093 7.48659C12.5093 7.20003 12.2911 6.9851 12.0002 6.9851C11.7093 6.9851 11.4911 7.20003 11.4911 7.48659C11.4911 7.77316 11.7093 7.98809 12.0002 7.98809Z" fill="#666666"/>
<path d="M16.2911 12.2149C16.5722 12.2149 16.8002 11.9904 16.8002 11.7134C16.8002 11.4365 16.5722 11.212 16.2911 11.212C16.0099 11.212 15.782 11.4365 15.782 11.7134C15.782 11.9904 16.0099 12.2149 16.2911 12.2149Z" fill="#666666"/>
<path d="M12.0002 16.406C12.2813 16.406 12.5093 16.1815 12.5093 15.9045C12.5093 15.6275 12.2813 15.403 12.0002 15.403C11.719 15.403 11.4911 15.6275 11.4911 15.9045C11.4911 16.1815 11.719 16.406 12.0002 16.406Z" fill="#666666"/>
<path d="M8.98187 14.1851C8.69096 14.1851 8.47278 14.4 8.47278 14.6866C8.47278 14.9732 8.69096 15.1881 8.98187 15.1881C9.27278 15.1881 9.49096 14.9732 9.49096 14.6866C9.49096 14.4 9.27278 14.1851 8.98187 14.1851Z" fill="#666666"/>
<path d="M15.0182 15.1881C15.3092 15.1881 15.5273 14.9732 15.5273 14.6866C15.5273 14.4 15.3092 14.1851 15.0182 14.1851C14.7273 14.1851 14.5092 14.4 14.5092 14.6866C14.5092 14.9732 14.7273 15.1881 15.0182 15.1881Z" fill="#666666"/>
<path d="M19.4183 0.358231H4.58189C4.00007 0.358231 3.52734 0.823902 3.52734 1.39704V22.2448C3.52734 22.8179 4.00007 23.2836 4.58189 23.2836H19.4183C20.0001 23.2836 20.4728 22.8179 20.4728 22.2448V1.39704C20.4728 0.823902 20.0001 0.358231 19.4183 0.358231ZM9.89098 1.36122H14.1455C14.291 1.36122 14.4364 1.46868 14.4364 1.64778C14.4364 1.79107 14.3273 1.93435 14.1455 1.93435H9.89098C9.74553 1.93435 9.60007 1.82689 9.60007 1.64778C9.60007 1.5045 9.70916 1.36122 9.89098 1.36122ZM11.891 22.5672C11.6364 22.5672 11.4546 22.3523 11.4546 22.1373C11.4546 21.8866 11.6728 21.7075 11.891 21.7075C12.1455 21.7075 12.3273 21.9224 12.3273 22.1373C12.3273 22.3881 12.1455 22.5672 11.891 22.5672ZM19.0183 20.7761C19.0183 20.9194 18.9092 21.0627 18.7273 21.0627H5.23643C5.09098 21.0627 4.94553 20.9552 4.94553 20.7761V2.65077C4.94553 2.50748 5.05462 2.3642 5.23643 2.3642H18.7637C18.9092 2.3642 19.0546 2.47166 19.0546 2.65077V20.7761H19.0183Z" fill="#666666"/>
<path d="M11.0545 12.6448C11.2727 12.8955 11.6364 13.0388 12 13.0388C12.7636 13.0388 13.3455 12.4299 13.3455 11.6776C13.3455 10.9254 12.7273 10.3523 12 10.3523C11.6364 10.3523 11.2727 10.4955 11.0545 10.7463C10.8 10.997 10.6545 11.3194 10.6545 11.6776C10.6545 12.0717 10.8 12.3941 11.0545 12.6448Z" fill="#666666"/>
<path d="M7.70904 12.2149C7.99995 12.2149 8.21813 12 8.21813 11.7134C8.21813 11.4269 7.99995 11.212 7.70904 11.212C7.41813 11.212 7.19995 11.4269 7.19995 11.7134C7.19995 11.9642 7.4545 12.2149 7.70904 12.2149Z" fill="#666666"/>
<path d="M5.52734 20.4896H18.5092V2.90152H5.52734V20.4896ZM7.70916 10.6747C8.18189 10.6747 8.61825 10.997 8.72734 11.4627H10.1092C10.1455 11.1403 10.291 10.8538 10.4728 10.603L9.49098 9.63585C9.34553 9.70749 9.16371 9.77913 8.98189 9.77913C8.40007 9.77913 7.92734 9.31346 7.92734 8.74033C7.92734 8.16719 8.40007 7.70152 8.98189 7.70152C9.56371 7.70152 10.0364 8.16719 10.0364 8.74033C10.0364 8.91943 9.96371 9.09853 9.89098 9.24182L10.8728 10.209C11.1273 10.0299 11.4183 9.88659 11.7455 9.85077V8.48958C11.3092 8.38212 10.9455 7.95227 10.9455 7.48659C10.9455 6.91346 11.4183 6.44779 12.0001 6.44779C12.5819 6.44779 13.0546 6.91346 13.0546 7.48659C13.0546 7.95227 12.7273 8.38212 12.291 8.48958V9.85077C12.6183 9.88659 12.9092 10.0299 13.1637 10.209L14.1455 9.24182C14.0728 9.09853 14.0001 8.91943 14.0001 8.74033C14.0001 8.16719 14.4728 7.70152 15.0546 7.70152C15.6364 7.70152 16.1092 8.16719 16.1092 8.74033C16.1092 9.31346 15.6364 9.77913 15.0546 9.77913C14.8728 9.77913 14.691 9.70749 14.5455 9.63585L13.5637 10.603C13.7455 10.8538 13.891 11.1403 13.9273 11.4627H15.2728C15.3819 11.0329 15.8183 10.6747 16.291 10.6747C16.8728 10.6747 17.3455 11.1403 17.3455 11.7135C17.3455 12.2866 16.8728 12.7523 16.291 12.7523C15.8183 12.7523 15.3819 12.4299 15.2728 11.9642H13.891C13.8546 12.2866 13.7092 12.5732 13.5273 12.8239L14.5092 13.7911C14.6546 13.7194 14.8364 13.6478 15.0183 13.6478C15.6001 13.6478 16.0728 14.1135 16.0728 14.6866C16.0728 15.2597 15.6001 15.7254 15.0183 15.7254C14.4364 15.7254 13.9637 15.2597 13.9637 14.6866C13.9637 14.5075 14.0364 14.3284 14.1092 14.1851L13.1273 13.2179C12.8728 13.397 12.5819 13.5403 12.2546 13.5761V14.9373C12.691 15.0448 13.0183 15.4747 13.0183 15.9403C13.0183 16.5135 12.5455 16.9791 11.9637 16.9791C11.3819 16.9791 10.9092 16.5135 10.9092 15.9403C10.9092 15.4747 11.2364 15.0448 11.7092 14.9373V13.5761C11.3819 13.5403 11.091 13.397 10.8364 13.2179L9.85462 14.1851C9.92734 14.3284 10.0001 14.5075 10.0001 14.6866C10.0001 15.2597 9.52734 15.7254 8.94553 15.7254C8.36371 15.7254 7.89098 15.2597 7.89098 14.6866C7.89098 14.1135 8.36371 13.6478 8.94553 13.6478C9.12734 13.6478 9.30916 13.7194 9.45462 13.7911L10.4364 12.8239C10.2546 12.5732 10.1092 12.2866 10.0728 11.9642H8.72734C8.61825 12.3941 8.18189 12.7523 7.70916 12.7523C7.12734 12.7523 6.65462 12.2866 6.65462 11.7135C6.65462 11.1403 7.12734 10.6747 7.70916 10.6747Z" fill="#666666"/>
<path d="M8.98187 9.24182C9.26303 9.24182 9.49096 9.0173 9.49096 8.74033C9.49096 8.46336 9.26303 8.23884 8.98187 8.23884C8.70071 8.23884 8.47278 8.46336 8.47278 8.74033C8.47278 9.0173 8.70071 9.24182 8.98187 9.24182Z" fill="#666666"/>
</g>
<defs>
<clipPath id="clip0_3_370">
<rect width="24" height="24" fill="white"/>
</clipPath>
</defs>
</svg>
