<svg width="24" height="24" viewBox="0 0 24 24" fill="none" xmlns="http://www.w3.org/2000/svg">
<g clip-path="url(#clip0_3_500)">
<path d="M13.683 3.46023C13.3761 3.15341 12.9466 3 12.517 3H7.91477C6.31932 3 5 4.31932 5 5.91477V17.267C5 18.8625 6.31932 20.1818 7.91477 20.1818H15.2784C16.8739 20.1818 18.1932 18.8625 18.1932 17.267V8.43068C18.1932 7.97046 18.0091 7.51023 17.6716 7.20341L13.683 3.46023ZM17.2727 17.267C17.2727 18.3716 16.383 19.2614 15.2784 19.2614H7.91477C6.81023 19.2614 5.92045 18.3716 5.92045 17.267V5.91477C5.92045 4.81023 6.81023 3.92045 7.91477 3.92045H12.517H12.5477V6.68182C12.5477 7.60227 13.3148 8.36932 14.2352 8.36932H17.2727C17.2727 8.4 17.2727 8.43068 17.2727 8.43068V17.267Z" fill="black"/>
<path d="M7.91485 13.708C7.70008 13.708 7.51599 13.8921 7.51599 14.1068C7.51599 14.3216 7.70008 14.5057 7.91485 14.5057C8.12963 14.5057 8.31372 14.3216 8.31372 14.1068C8.31372 13.8921 8.12963 13.708 7.91485 13.708Z" fill="black"/>
<path d="M10.1239 12.6341C9.97053 12.4193 9.72507 12.3273 9.5103 12.3273C8.98871 12.3273 8.58984 12.7261 8.58984 13.4011C8.58984 14.1068 8.98871 14.5057 9.5103 14.5057C9.75575 14.5057 9.93984 14.4136 10.1239 14.1989V14.4443H10.7683V11.5909H10.1239V12.6341ZM10.1239 13.7386C10.0319 13.8614 9.87848 13.9227 9.72507 13.9227C9.44893 13.9227 9.26484 13.7386 9.26484 13.4011C9.26484 13.0943 9.44893 12.9102 9.72507 12.9102C9.87848 12.9102 10.0319 12.9716 10.1239 13.0943V13.7386Z" fill="black"/>
<path d="M12.2409 12.3272C11.5352 12.3272 11.1057 12.8181 11.1057 13.4011C11.1057 13.9841 11.5352 14.5056 12.2409 14.5056C12.9466 14.5056 13.3761 13.9841 13.3761 13.4011C13.3761 12.8488 12.9772 12.3272 12.2409 12.3272ZM12.2409 13.9227C11.9647 13.9227 11.7807 13.7079 11.7807 13.4011C11.7807 13.125 11.9341 12.9102 12.2409 12.9102C12.5477 12.9102 12.7011 13.125 12.7011 13.4011C12.7011 13.7079 12.5477 13.9227 12.2409 13.9227Z" fill="black"/>
<path d="M14.7569 12.9102C14.9409 12.9102 15.0637 13.0022 15.1557 13.0943L15.5853 12.6954C15.4625 12.5113 15.1864 12.3272 14.7262 12.3272C14.0819 12.3272 13.5909 12.7568 13.5909 13.4011C13.5909 14.0454 14.0819 14.5056 14.7262 14.5056C15.1864 14.5056 15.4625 14.2909 15.5853 14.1375L15.1557 13.7386C15.0637 13.8613 14.9409 13.9534 14.7569 13.9534C14.4807 13.9534 14.2659 13.7693 14.2659 13.4318C14.2659 13.125 14.4807 12.9102 14.7569 12.9102Z" fill="black"/>
</g>
<defs>
<clipPath id="clip0_3_500">
<rect width="24" height="24" fill="white"/>
</clipPath>
</defs>
</svg>
