<svg width="24" height="24" viewBox="0 0 24 24" fill="none" xmlns="http://www.w3.org/2000/svg">
<path d="M8 16L12 20L16 16" stroke="#666666" stroke-width="2" stroke-linecap="round" stroke-linejoin="round"/>
<path d="M12 12V20" stroke="#666666" stroke-width="2" stroke-linecap="round" stroke-linejoin="round"/>
<path d="M20.0703 17C20.8602 16.4737 21.4525 15.7227 21.7614 14.8558C22.0702 13.9889 22.0795 13.0514 21.7878 12.1792C21.4962 11.307 20.9188 10.5456 20.1394 10.0054C19.3601 9.46516 18.4193 9.17431 17.4537 9.17503H16.3089C16.0356 8.16602 15.5243 7.2289 14.8135 6.43421C14.1027 5.63951 13.2108 5.00796 12.2051 4.58709C11.1994 4.16623 10.106 3.96701 9.00726 4.00445C7.90852 4.04189 6.83306 4.315 5.86185 4.80322C4.89063 5.29145 4.04897 5.98207 3.40023 6.82309C2.75148 7.6641 2.31256 8.6336 2.1165 9.6586C1.92044 10.6836 1.97236 11.7374 2.26834 12.7406C2.56432 13.7439 3.09665 14.6704 3.82526 15.4505" stroke="#666666" stroke-width="2" stroke-linecap="round" stroke-linejoin="round"/>
</svg>
