<svg width="24" height="24" viewBox="0 0 24 24" fill="none" xmlns="http://www.w3.org/2000/svg">
<path d="M19.9167 9.5H18.6667V4.08333C18.6667 2.935 17.7325 2 16.5833 2H4.08333C2.93417 2 2 2.935 2 4.08333V13.25C2 14.3983 2.93417 15.3333 4.08333 15.3333H6.16667V18.25C6.16667 19.3983 7.10083 20.3333 8.25 20.3333H13.6667V21.1667H10.75C10.52 21.1667 10.3333 21.3533 10.3333 21.5833C10.3333 21.8133 10.52 22 10.75 22H17.4167C17.6467 22 17.8333 21.8133 17.8333 21.5833C17.8333 21.3533 17.6467 21.1667 17.4167 21.1667H14.5V20.3333H19.9167C21.0658 20.3333 22 19.3983 22 18.25V11.5833C22 10.435 21.0658 9.5 19.9167 9.5ZM21.1667 11.5833V17H7V11.5833C7 10.8942 7.56083 10.3333 8.25 10.3333H19.9167C20.6058 10.3333 21.1667 10.8942 21.1667 11.5833ZM4.08333 2.83333H16.5833C17.2725 2.83333 17.8333 3.39417 17.8333 4.08333V5.33333H2.83333V4.08333C2.83333 3.39417 3.39417 2.83333 4.08333 2.83333ZM4.08333 14.5C3.39417 14.5 2.83333 13.9392 2.83333 13.25V6.16667H17.8333V9.5H8.25C7.10083 9.5 6.16667 10.435 6.16667 11.5833V14.5H4.08333ZM19.9167 19.5H8.25C7.56083 19.5 7 18.9392 7 18.25V17.8333H21.1667V18.25C21.1667 18.9392 20.6058 19.5 19.9167 19.5Z" fill="black"/>
<path d="M4.5 5C4.77614 5 5 4.77614 5 4.5C5 4.22386 4.77614 4 4.5 4C4.22386 4 4 4.22386 4 4.5C4 4.77614 4.22386 5 4.5 5Z" fill="black"/>
<path d="M5.5 5C5.77614 5 6 4.77614 6 4.5C6 4.22386 5.77614 4 5.5 4C5.22386 4 5 4.22386 5 4.5C5 4.77614 5.22386 5 5.5 5Z" fill="black"/>
<path d="M7.5 5C7.77614 5 8 4.77614 8 4.5C8 4.22386 7.77614 4 7.5 4C7.22386 4 7 4.22386 7 4.5C7 4.77614 7.22386 5 7.5 5Z" fill="black"/>
</svg>
