<svg width="24" height="24" viewBox="0 0 24 24" fill="none" xmlns="http://www.w3.org/2000/svg">
<path d="M2.97984 14.583L2 19.4022H13.8097L12.8695 14.583H2.97984Z" fill="#666666"/>
<path d="M20.832 11.5303H18.7523V12.4421H20.832V11.5303Z" fill="#666666"/>
<path d="M10.7457 4.00031V12.2045C10.4367 11.0578 8.85102 10.6807 8.61512 10.6305C9.07359 10.4004 9.39154 9.93064 9.39154 9.38397C9.39154 8.612 8.7635 7.98395 7.99187 7.98395C7.21989 7.98395 6.59185 8.612 6.59185 9.38397C6.59185 9.91936 6.89784 10.3799 7.34058 10.6154L7.29169 10.6247C7.20827 10.6407 5.24311 11.0301 5.08824 12.4295C5.04448 12.8226 5.03422 13.5167 5.0414 14.2941H11.4326L13.366 13.5666L13.6798 13.077H21.4874V3.99997L10.7457 4.00031ZM7.93853 11.4681L7.5187 10.6954C7.66742 10.7491 7.82503 10.7833 7.99187 10.7833C8.11187 10.7833 8.2264 10.7635 8.33751 10.7348L7.93853 11.4681ZM10.8569 13.5037C10.8586 13.3129 10.8579 13.1789 10.8552 13.077H12.7177L10.8569 13.5037ZM21.0129 12.6025H13.9848L17.4987 7.79831L13.2456 12.6025H11.2199V4.47485H21.0132L21.0129 12.6025Z" fill="#666666"/>
</svg>
