<svg width="24" height="24" viewBox="0 0 24 24" fill="none" xmlns="http://www.w3.org/2000/svg">
<path d="M17.2273 10.5904V8.02023C17.2527 6.71826 16.7695 5.45909 15.8836 4.51825C14.9976 3.57741 13.781 3.03151 12.5 3C11.219 3.03151 10.0024 3.57741 9.11643 4.51825C8.23049 5.45909 7.74735 6.71826 7.77273 8.02023V10.5904H6V20.799C6 21.1175 6.12451 21.423 6.34615 21.6482C6.56778 21.8735 6.86838 22 7.18182 22H17.8182C18.1316 22 18.4322 21.8735 18.6539 21.6482C18.8755 21.423 19 21.1175 19 20.799V10.5904H17.2273ZM13.0909 16.7336V18.397H11.9091V16.6795C11.6214 16.5291 11.393 16.2832 11.2617 15.9827C11.1305 15.6822 11.1043 15.3451 11.1875 15.0274C11.2707 14.7096 11.4583 14.4304 11.7191 14.2359C11.98 14.0414 12.2985 13.9435 12.6217 13.9582C12.9449 13.973 13.2534 14.0997 13.4961 14.3172C13.7387 14.5346 13.9009 14.8299 13.9556 15.154C14.0104 15.478 13.9545 15.8113 13.7973 16.0987C13.64 16.386 13.3907 16.61 13.0909 16.7336ZM16.0455 10.5904H8.95455V8.02023C8.92907 7.03674 9.28767 6.08299 9.95201 5.36736C10.6163 4.65173 11.5324 4.23241 12.5 4.20101C13.4676 4.23241 14.3837 4.65173 15.048 5.36736C15.7123 6.08299 16.0709 7.03674 16.0455 8.02023V10.5904Z" fill="#666666"/>
</svg>
