<svg width="24" height="24" viewBox="0 0 24 24" fill="none" xmlns="http://www.w3.org/2000/svg">
<path d="M11.0082 19.2048C12.6069 19.2457 11.4164 14.8235 14.9881 13.293L14.9744 7.6941C14.9744 6.92535 14.5867 6.34705 13.7907 6.15659C12.2125 5.68033 11.4232 5.19042 8.45717 5C7.26667 5 5.85159 5.44222 5.68832 6.53751C5.49105 7.88456 5.09648 9.80977 5.00796 11.354C4.93992 12.5513 5.28693 13.4766 6.87197 13.6671C8.05575 13.8575 9.11018 13.7283 10.2328 13.6671C8.8517 16.5584 8.22585 19.2049 11.0083 19.2049L11.0082 19.2048ZM16.9067 14.6877C17.6755 14.6877 18.4442 14.2046 18.4442 13.2454V7.29275C18.4442 5.37423 15.3692 5.37423 15.3692 7.29275V13.2454C15.3692 14.2047 16.138 14.6877 16.9067 14.6877Z" fill="black"/>
</svg>
