<svg width="24" height="24" viewBox="0 0 24 24" fill="none" xmlns="http://www.w3.org/2000/svg">
<path d="M21.1392 11.608C20.2559 10.4559 17.1648 7 12.1344 7C7.10398 7 4.03198 10.456 3.12958 11.608C2.95681 11.8192 2.95681 12.1264 3.12958 12.3376C4.01285 13.4897 7.10398 16.9456 12.1344 16.9456C17.1648 16.9456 20.2368 13.4896 21.1392 12.3376C21.2928 12.1264 21.2928 11.8192 21.1392 11.608ZM12.1344 15.6784C10.0799 15.6784 8.42878 14.0272 8.42878 11.9728C8.42878 9.91833 10.08 8.2672 12.1344 8.2672C14.1888 8.2672 15.84 9.9184 15.84 11.9728C15.84 14.0273 14.1889 15.6784 12.1344 15.6784Z" fill="black"/>
<path d="M12.1344 9.592C11.9232 9.592 11.7311 9.61116 11.5392 9.66875C11.8271 9.8991 12 10.2255 12 10.6287C12 11.3008 11.4624 11.8384 10.7904 11.8384C10.4064 11.8384 10.0608 11.6656 9.8304 11.3775C9.77281 11.5696 9.75366 11.7808 9.75366 11.9727C9.75366 13.2975 10.8288 14.3535 12.1345 14.3535C13.44 14.3535 14.5153 13.2784 14.5153 11.9727C14.5152 10.6673 13.4399 9.59198 12.1344 9.59198L12.1344 9.592Z" fill="black"/>
</svg>
