<svg width="24" height="24" viewBox="0 0 24 24" fill="none" xmlns="http://www.w3.org/2000/svg">
<path d="M4.50203 5C4.36933 4.99947 4.24198 5.04903 4.14789 5.13766C4.05369 5.22629 4.00057 5.34669 4.00001 5.4725V14.6648C3.99923 14.7914 4.05179 14.9131 4.1461 15.0027C4.24041 15.0922 4.36853 15.1424 4.50201 15.1419H10.1582L9.49026 17.0497H8.48436C8.46717 17.0489 8.44988 17.0489 8.43258 17.0497C8.25378 17.0585 8.09352 17.1571 8.01215 17.3084C7.93079 17.4596 7.94061 17.6407 8.03804 17.7832C8.13548 17.9258 8.30556 18.0082 8.48435 17.9994H15.5185C15.6973 17.9994 15.8626 17.9089 15.952 17.762C16.0414 17.6151 16.0414 17.434 15.952 17.2871C15.8626 17.1402 15.6973 17.0497 15.5185 17.0497H14.5128L13.8458 15.1419H19.502C19.6347 15.1415 19.7618 15.0909 19.8552 15.0014C19.9487 14.9118 20.0008 14.7908 20 14.6648V5.4725C19.9994 5.34734 19.9469 5.22747 19.8536 5.13894C19.7603 5.05041 19.6339 5.00054 19.502 5.00001L4.50203 5ZM5.00002 5.94878H18.9998V14.1923H5.00002V5.94878ZM10.1385 7.05692C10.0039 7.05438 9.87391 7.10351 9.77804 7.1932C9.68206 7.28278 9.62827 7.4054 9.62883 7.5331L9.63273 12.6115C9.63329 12.728 9.67894 12.8402 9.76108 12.9268C9.84311 13.0134 9.95594 13.0683 10.078 13.0811C10.2 13.0938 10.3228 13.0635 10.4228 12.996L14.1622 10.4545C14.293 10.3653 14.3706 10.2219 14.3706 10.0691C14.3706 9.91626 14.293 9.77277 14.1622 9.68362L10.4191 7.14491C10.337 7.08953 10.2394 7.05883 10.1387 7.05692H10.1385ZM10.6298 8.45414L13.0096 10.0691L10.6327 11.6905L10.6298 8.45414ZM11.2118 15.1419H12.7909L13.4589 17.0496H10.5438L11.2118 15.1419Z" fill="black"/>
</svg>
