<svg width="24" height="24" viewBox="0 0 24 24" fill="none" xmlns="http://www.w3.org/2000/svg">
<path d="M19.3399 7.86079H13.9149V7.17802C13.9149 6.3395 13.2327 5.65714 12.394 5.65714L4.66017 5.65728C3.82164 5.65728 3.13953 6.33963 3.13953 7.17816V12.3244C3.13953 13.163 3.82174 13.8451 4.66017 13.8451H5.57584L5.47566 15.6411C5.46467 15.835 5.57182 16.0162 5.747 16.1006C5.81329 16.1324 5.88427 16.148 5.95499 16.148C6.0707 16.148 6.18535 16.1061 6.27521 16.0254L8.71111 13.8451H10.0859V14.5278C10.0859 15.3664 10.7681 16.0487 11.6068 16.0487H15.2904L17.7255 18.2289C17.8154 18.3096 17.93 18.3515 18.0457 18.3515H18.0496C18.3148 18.3515 18.5296 18.1367 18.5296 17.8715C18.5296 17.8415 18.5269 17.8122 18.5216 17.7838L18.4246 16.0487H19.3403C20.1788 16.0487 20.8609 15.3664 20.8609 14.5279L20.8608 9.38157C20.8608 8.54304 20.1787 7.86069 19.3401 7.86069L19.3399 7.86079ZM8.52688 12.885C8.40875 12.885 8.29478 12.9285 8.20679 13.0076L6.4984 14.5369L6.56228 13.3919C6.56978 13.26 6.52237 13.1311 6.4317 13.0354C6.34103 12.9396 6.21487 12.8853 6.08309 12.8853H4.65995C4.35085 12.8853 4.09931 12.6337 4.09931 12.3246V7.178C4.09931 6.86889 4.35083 6.61712 4.65995 6.61712H12.3938C12.7029 6.61712 12.9547 6.86877 12.9547 7.178V7.86076H11.6059C10.7672 7.86076 10.085 8.54312 10.085 9.38164V12.885L8.52688 12.885ZM19.9005 14.5278C19.9005 14.8369 19.649 15.0887 19.3398 15.0887H17.9167C17.7848 15.0887 17.6586 15.143 17.5681 15.2388C17.4774 15.3346 17.4303 15.4637 17.4375 15.5953L17.5014 16.7403L15.793 15.211C15.705 15.1321 15.591 15.0884 15.4729 15.0884H11.6058C11.2967 15.0884 11.0449 14.8368 11.0449 14.5275L11.0451 9.38159C11.0451 9.07248 11.2967 8.82071 11.606 8.82071H19.3398C19.6489 8.82071 19.9004 9.07236 19.9004 9.38159L19.9005 14.5278Z" fill="black"/>
</svg>
