<svg width="24" height="24" viewBox="0 0 24 24" fill="none" xmlns="http://www.w3.org/2000/svg">
<path d="M18.6186 9.75366H13.1819C13.6075 8.71048 14.3563 6.16669 12.4619 4.38074C12.2027 4.13431 11.8538 4 11.4827 4C10.9291 4 10.4748 4.4512 10.4748 5.00793C10.4748 6.4095 10.1387 7.80798 9.50191 9.05604L8.80108 10.4288C8.69233 10.64 8.14187 10.7904 7.74182 10.8512V18.5377H9.01855C9.25534 19.0209 9.75772 19.3409 10.3081 19.3409H17.0953C17.889 19.3409 18.5321 18.6945 18.5321 17.9009C18.5321 17.5842 18.4297 17.2929 18.2569 17.0561C18.8776 16.8992 19.3353 16.3328 19.3353 15.664C19.3353 15.2864 19.1913 14.944 18.9481 14.6879C19.3929 14.4447 19.6969 13.9711 19.6969 13.4271C19.6969 13.0528 19.5497 12.7104 19.3097 12.4543C19.7513 12.2078 20.0553 11.7343 20.0553 11.1903C20.0553 10.4001 19.4089 9.75376 18.6185 9.75376L18.6186 9.75366Z" fill="black"/>
<path d="M5.22002 19.2546H6.72725C6.90323 19.2546 7.04721 19.1138 7.04721 18.9346L7.04734 10.0738C7.04734 9.89783 6.90337 9.75386 6.72739 9.75386H4.32084C4.23124 9.75386 4.14486 9.7923 4.08405 9.85953C4.02325 9.92676 3.99445 10.0164 4.00088 10.106L4.90328 18.9668C4.91935 19.1299 5.0569 19.2547 5.22002 19.2547L5.22002 19.2546Z" fill="black"/>
</svg>
