<svg width="24" height="24" viewBox="0 0 24 24" fill="none" xmlns="http://www.w3.org/2000/svg">
<path fill-rule="evenodd" clip-rule="evenodd" d="M20.2405 7.46416C20.4327 7.46416 20.625 7.46416 20.8173 7.52825C21.0096 10.4122 21.0737 13.617 21.2018 16.5652C17.8051 15.6038 15.5619 16.1165 13.6393 17.4625C15.7543 15.6038 17.7412 15.2192 20.6251 15.9242L20.2405 7.46416Z" fill="#4F4F4F"/>
<path fill-rule="evenodd" clip-rule="evenodd" d="M3.96139 7.46416C3.76911 7.46416 3.57684 7.46416 3.38455 7.52825C3.25637 10.4122 3.12818 13.617 3 16.5652C6.39671 15.6038 8.70417 16.1165 10.5626 17.4625C8.44752 15.6038 6.46067 15.2192 3.57674 15.9242L3.96139 7.46416Z" fill="#4F4F4F"/>
<path fill-rule="evenodd" clip-rule="evenodd" d="M12.0369 8.23331C10.3064 6.43873 7.67858 5.79792 4.34611 6.05418C4.15383 8.93811 4.02565 11.8865 3.89746 14.8347C7.74297 13.8733 10.0502 15.6038 12.037 17.7829V8.23344L12.0369 8.23331Z" fill="#4F4F4F"/>
<path fill-rule="evenodd" clip-rule="evenodd" d="M12.1648 8.23331C12.3571 8.04103 12.6134 7.84876 12.8698 7.65647V13.5528C13.1262 13.0401 13.1262 12.6555 13.1903 12.4632C13.3184 12.7196 13.3184 12.7837 13.6389 13.1041V7.07963C15.2412 6.18234 17.4202 5.86188 19.9198 6.05414C20.048 8.93808 20.1762 11.8865 20.3044 14.8347C16.4588 13.8733 14.1516 15.6038 12.1648 17.7828V8.23341V8.23331Z" fill="#4F4F4F"/>
</svg>
