<svg width="24" height="24" viewBox="0 0 24 24" fill="none" xmlns="http://www.w3.org/2000/svg">
<path d="M16.3908 4.16375C16.616 3.93857 16.8833 3.75995 17.1776 3.63808C17.4718 3.51621 17.7871 3.45349 18.1056 3.45349C18.424 3.45349 18.7393 3.51621 19.0335 3.63808C19.3278 3.75995 19.5951 3.93857 19.8203 4.16375C20.0454 4.38893 20.2241 4.65625 20.3459 4.95046C20.4678 5.24467 20.5305 5.56001 20.5305 5.87846C20.5305 6.19691 20.4678 6.51224 20.3459 6.80645C20.2241 7.10066 20.0454 7.36799 19.8203 7.59317L8.24597 19.1675L3.53052 20.4535L4.81655 15.738L16.3908 4.16375Z" stroke="#666666" stroke-width="2" stroke-linecap="round" stroke-linejoin="round"/>
</svg>
