<svg width="24" height="24" viewBox="0 0 24 24" fill="none" xmlns="http://www.w3.org/2000/svg">
<g clip-path="url(#clip0_3_509)">
<path d="M12.5175 5C12.5074 5.00183 12.4973 5.00432 12.4875 5.00744H6.96751C6.43687 5.00744 6 5.44433 6 5.97497V17.5924C6 18.1234 6.43687 18.5599 6.96751 18.5599H7.68751V18.6874C7.68751 18.9526 7.90238 19.1674 8.16751 19.1674H16.9125C17.1776 19.1674 17.3925 18.9526 17.3925 18.6874V15.5075C17.3925 15.2423 17.1776 15.0275 16.9125 15.0275H16.2825V8.60746C16.282 8.58974 16.2795 8.57214 16.2751 8.55497C16.2751 8.55249 16.2751 8.55001 16.2751 8.54753C16.2727 8.54248 16.2703 8.53752 16.2676 8.53265C16.2677 8.53017 16.2677 8.52768 16.2676 8.5252C16.2653 8.52008 16.2628 8.51504 16.2602 8.51009C16.2577 8.50755 16.2553 8.50507 16.2527 8.50265C16.2528 8.50017 16.2528 8.49768 16.2527 8.4952C16.2503 8.49267 16.2478 8.49019 16.2453 8.48776C16.243 8.48272 16.2405 8.47775 16.2379 8.47288C16.2354 8.47035 16.2329 8.46786 16.2304 8.46544C16.2281 8.46031 16.2256 8.45527 16.223 8.45032C16.2205 8.44779 16.2181 8.44531 16.2155 8.44288C16.2131 8.44035 16.2106 8.43786 16.2081 8.43544L12.7131 5.07544C12.6785 5.0404 12.634 5.01682 12.5856 5.00792C12.5635 5.00226 12.5408 4.99975 12.5181 5.00048L12.5175 5ZM6.96751 5.48753H12.3V7.88001C12.3 8.41082 12.737 8.84753 13.2675 8.84753H15.8025V15.0275H8.16751C7.90238 15.0275 7.68751 15.2424 7.68751 15.5075V18.08H6.96751C6.6965 18.08 6.48 17.8642 6.48 17.5925V5.97503C6.48 5.70402 6.69653 5.48753 6.96751 5.48753ZM12.78 5.81001L15.27 8.19503L15.45 8.36753H13.2675C12.9965 8.36753 12.78 8.15136 12.78 7.88001V5.81001ZM7.32751 9.39503C7.26388 9.40101 7.20522 9.43203 7.16444 9.48125C7.12367 9.53047 7.10411 9.59388 7.11008 9.65751C7.11604 9.72115 7.14703 9.77982 7.19624 9.82061C7.24545 9.8614 7.30885 9.88097 7.37249 9.87503H14.94C14.9718 9.87548 15.0034 9.8696 15.0329 9.85774C15.0624 9.84588 15.0893 9.82829 15.1119 9.80596C15.1346 9.78363 15.1525 9.75701 15.1648 9.72767C15.1771 9.69832 15.1834 9.66684 15.1834 9.63503C15.1834 9.60322 15.1771 9.57173 15.1648 9.54239C15.1525 9.51305 15.1346 9.48644 15.1119 9.46411C15.0893 9.44178 15.0624 9.42417 15.0329 9.41231C15.0034 9.40045 14.9718 9.39458 14.94 9.39503H7.37249C7.36497 9.39468 7.35744 9.39468 7.34993 9.39503C7.34241 9.39468 7.33488 9.39468 7.32737 9.39503H7.32751ZM7.30495 10.8125C7.2413 10.8215 7.18381 10.8553 7.14513 10.9067C7.10645 10.958 7.08975 11.0226 7.0987 11.0863C7.10765 11.1499 7.14151 11.2074 7.19285 11.2461C7.24419 11.2848 7.30879 11.3015 7.37244 11.2925H14.94C14.9718 11.293 15.0033 11.2871 15.0328 11.2752C15.0624 11.2634 15.0892 11.2458 15.1119 11.2234C15.1345 11.2011 15.1525 11.1745 15.1648 11.1452C15.1771 11.1158 15.1834 11.0843 15.1834 11.0525C15.1834 11.0207 15.1771 10.9892 15.1648 10.9599C15.1525 10.9306 15.1345 10.9039 15.1119 10.8816C15.0892 10.8593 15.0624 10.8417 15.0328 10.8298C15.0033 10.818 14.9718 10.8121 14.94 10.8125H7.37244C7.35748 10.8111 7.34242 10.8111 7.32746 10.8125C7.31995 10.8122 7.31242 10.8122 7.3049 10.8125H7.30495ZM7.30495 12.23C7.27344 12.2344 7.2431 12.245 7.21568 12.2612C7.18825 12.2774 7.16428 12.2988 7.14513 12.3242C7.12598 12.3496 7.11202 12.3785 7.10405 12.4093C7.09609 12.4402 7.09426 12.4722 7.0987 12.5038C7.10313 12.5353 7.11372 12.5656 7.12988 12.593C7.14603 12.6205 7.16743 12.6444 7.19285 12.6636C7.21827 12.6827 7.24721 12.6967 7.27803 12.7047C7.30884 12.7126 7.34092 12.7144 7.37244 12.71H14.94C14.9718 12.7105 15.0033 12.7046 15.0328 12.6927C15.0624 12.6809 15.0892 12.6633 15.1119 12.6409C15.1345 12.6186 15.1525 12.592 15.1648 12.5627C15.1771 12.5333 15.1834 12.5018 15.1834 12.47C15.1834 12.4382 15.1771 12.4067 15.1648 12.3774C15.1525 12.348 15.1345 12.3214 15.1119 12.2991C15.0892 12.2768 15.0624 12.2592 15.0328 12.2473C15.0033 12.2354 14.9718 12.2296 14.94 12.23H7.37244C7.35748 12.2286 7.34242 12.2286 7.32746 12.23C7.31995 12.2297 7.31242 12.2297 7.3049 12.23H7.30495ZM7.30495 13.6475C7.27344 13.652 7.2431 13.6626 7.21568 13.6787C7.18825 13.6949 7.16428 13.7163 7.14513 13.7417C7.12598 13.7671 7.11202 13.796 7.10405 13.8269C7.09609 13.8577 7.09426 13.8897 7.0987 13.9213C7.10313 13.9528 7.11372 13.9831 7.12988 14.0105C7.14603 14.038 7.16743 14.0619 7.19285 14.0811C7.21827 14.1002 7.24721 14.1142 7.27803 14.1222C7.30884 14.1301 7.34092 14.132 7.37244 14.1275H11.445C11.4768 14.128 11.5083 14.1221 11.5378 14.1102C11.5674 14.0984 11.5942 14.0808 11.6169 14.0584C11.6395 14.0361 11.6575 14.0095 11.6698 13.9802C11.6821 13.9508 11.6884 13.9193 11.6884 13.8875C11.6884 13.8557 11.6821 13.8242 11.6698 13.7949C11.6575 13.7656 11.6395 13.7389 11.6169 13.7166C11.5942 13.6943 11.5674 13.6767 11.5378 13.6648C11.5083 13.653 11.4768 13.6471 11.445 13.6475H7.37244C7.35748 13.6461 7.34242 13.6461 7.32746 13.6475C7.31995 13.6472 7.31242 13.6472 7.3049 13.6475H7.30495ZM9.73495 16.1825H10.335C10.5615 16.1825 10.7087 16.1943 10.7775 16.2125C10.8832 16.2402 10.9686 16.2998 11.04 16.3925C11.1113 16.4852 11.1524 16.6057 11.1524 16.7525C11.1524 16.8658 11.126 16.9604 11.085 17.0375C11.0438 17.1147 10.9983 17.1735 10.935 17.2175C10.8716 17.2616 10.8054 17.2933 10.74 17.3075C10.651 17.325 10.5186 17.3375 10.35 17.3375H10.11V18.0275H9.73495V16.1825ZM11.46 16.1825H12.0524C12.279 16.1825 12.4261 16.1943 12.495 16.2125C12.6007 16.2402 12.6937 16.2998 12.765 16.3925C12.8363 16.4852 12.87 16.6057 12.87 16.7525C12.87 16.8658 12.851 16.9604 12.81 17.0375C12.7688 17.1147 12.7158 17.1735 12.6524 17.2175C12.5891 17.2616 12.5229 17.2933 12.4575 17.3075C12.3685 17.325 12.2436 17.3375 12.075 17.3375H11.8275V18.0275H11.46V16.1825ZM13.05 16.1825H14.5124V16.4975H13.965V18.0275H13.5975V16.4975H13.05V16.1825ZM10.11 16.4975V17.0225H10.3124C10.4593 17.0225 10.5555 17.012 10.605 16.9925C10.6545 16.9733 10.6968 16.9436 10.725 16.9025C10.7531 16.8614 10.7624 16.8146 10.7624 16.76C10.7624 16.6929 10.7495 16.6386 10.71 16.595C10.6705 16.5513 10.6204 16.5234 10.56 16.5125C10.5155 16.5041 10.4242 16.4976 10.29 16.4976H10.11V16.4975ZM11.8275 16.4975V17.0225H12.0375C12.1843 17.0225 12.2804 17.012 12.33 16.9925C12.3794 16.9733 12.4144 16.9436 12.4424 16.9025C12.4706 16.8614 12.4875 16.8146 12.4875 16.76C12.4875 16.6929 12.4668 16.6386 12.4275 16.595C12.388 16.5513 12.3378 16.5234 12.2775 16.5125C12.233 16.5041 12.1417 16.4976 12.0075 16.4976H11.8275V16.4975ZM9.02244 17.675H9.37495V18.0275H9.02244V17.675Z" fill="black"/>
</g>
<defs>
<clipPath id="clip0_3_509">
<rect width="24" height="24" fill="white"/>
</clipPath>
</defs>
</svg>
