<svg width="24" height="24" viewBox="0 0 24 24" fill="none" xmlns="http://www.w3.org/2000/svg">
<g clip-path="url(#clip0_3_520)">
<path d="M11.8341 8.00048C12.4138 7.99177 12.989 8.10205 13.5244 8.32448C13.9777 8.50667 14.362 8.8273 14.6224 9.2407C14.8926 9.66747 15.0027 10.1762 14.9331 10.6765C14.8636 11.1768 14.6189 11.6362 14.2426 11.9731C14.0024 12.2003 13.7454 12.4091 13.474 12.5978C13.2778 12.7418 13.0852 12.893 12.8926 13.0442C12.7638 13.1569 12.6659 13.3006 12.6081 13.4618C12.5589 13.5818 12.5109 13.697 12.4641 13.8074C12.4161 13.9316 12.3316 14.0383 12.2217 14.1135C12.1118 14.1887 11.9817 14.2288 11.8485 14.2286C11.6726 14.2494 11.4948 14.2114 11.3427 14.1206C11.2185 14.0431 11.1175 13.9334 11.0506 13.8031C10.9838 13.6729 10.9534 13.5269 10.9629 13.3808C10.9728 13.0194 11.1172 12.6746 11.3679 12.4142C11.6593 12.116 11.9761 11.8437 12.3147 11.6005C12.5672 11.4168 12.7848 11.1894 12.9574 10.9291C13.1932 10.5367 13.1194 9.89411 12.7161 9.60971C12.5706 9.50767 12.4038 9.43997 12.2283 9.4117C11.9604 9.36161 11.6844 9.37705 11.4237 9.4567C11.2823 9.50692 11.1527 9.58575 11.0431 9.68825C10.9334 9.79076 10.8461 9.91476 10.7865 10.0525C10.6821 10.2523 10.5903 10.4593 10.4715 10.6501C10.3809 10.7908 10.2476 10.8989 10.0912 10.9584C9.93476 11.018 9.76339 11.026 9.6021 10.9813C9.45646 10.9576 9.32114 10.8912 9.21329 10.7905C9.14153 10.7208 9.08547 10.6365 9.04884 10.5434C9.01222 10.4503 8.99587 10.3505 9.00089 10.2505C9.00564 9.90247 9.11475 9.56385 9.31409 9.2785C9.64968 8.79666 10.1264 8.43066 10.6785 8.23088C11.0472 8.08695 11.4384 8.00896 11.8341 8.00048Z" fill="black"/>
<path d="M11.7351 17.0006C12.2729 17.0006 12.7089 16.5646 12.7089 16.0268C12.7089 15.489 12.2729 15.053 11.7351 15.053C11.1973 15.053 10.7613 15.489 10.7613 16.0268C10.7613 16.5646 11.1973 17.0006 11.7351 17.0006Z" fill="black"/>
<path d="M12 4C13.5823 4 15.129 4.46919 16.4446 5.34824C17.7602 6.22729 18.7855 7.47672 19.391 8.93853C19.9965 10.4003 20.155 12.0089 19.8463 13.5607C19.5376 15.1126 18.7757 16.538 17.6569 17.6569C16.538 18.7757 15.1126 19.5376 13.5607 19.8463C12.0089 20.155 10.4003 19.9965 8.93854 19.391C7.47673 18.7855 6.2273 17.7602 5.34825 16.4446C4.4692 15.129 4 13.5822 4 12C4 9.87827 4.84286 7.84344 6.34315 6.34314C7.84344 4.84285 9.87827 4 12 4ZM12 2C10.0222 2 8.08879 2.58649 6.4443 3.6853C4.79981 4.78412 3.51809 6.3459 2.76121 8.17316C2.00433 10.0004 1.8063 12.0111 2.19215 13.9509C2.578 15.8907 3.53041 17.6725 4.92894 19.0711C6.32746 20.4696 8.10929 21.422 10.0491 21.8078C11.9889 22.1937 13.9996 21.9957 15.8268 21.2388C17.6541 20.4819 19.2159 19.2002 20.3147 17.5557C21.4135 15.9112 22 13.9778 22 12C22 9.34783 20.9464 6.8043 19.0711 4.92893C17.1957 3.05357 14.6522 2 12 2Z" fill="black"/>
</g>
<defs>
<clipPath id="clip0_3_520">
<rect width="24" height="24" fill="white"/>
</clipPath>
</defs>
</svg>
