<svg width="24" height="24" viewBox="0 0 24 24" fill="none" xmlns="http://www.w3.org/2000/svg">
<g clip-path="url(#clip0_3_514)">
<path d="M17.7624 4H6.22082C4.99264 4 4 5.0279 4 6.28229V14.4358C4 15.7076 4.99264 16.7355 6.22082 16.7355H9.80442L11.1167 19.4534C11.4869 20.1851 12.4963 20.1851 12.8665 19.4359L14.1788 16.7181H17.7792C19.0074 16.7181 20 15.6902 20 14.4184V6.28229C19.9832 5.0279 18.9905 4 17.7624 4ZM8.8286 14.1048C8.42482 14.1048 8.10515 13.7738 8.10515 13.3556C8.10515 12.9375 8.42482 12.6065 8.8286 12.6065C9.23239 12.6065 9.55205 12.9375 9.55205 13.3556C9.55205 13.7738 9.21556 14.1048 8.8286 14.1048ZM10.6288 10.028C10.3428 10.4462 10.04 10.6552 9.82124 10.812C9.56887 11.0037 9.4511 11.0908 9.41746 11.5263C9.40063 11.6831 9.26604 11.8225 9.11462 11.8225H8.55941C8.47529 11.8225 8.39117 11.7877 8.32387 11.718C8.25657 11.6483 8.23975 11.5612 8.23975 11.4741C8.30705 10.4984 8.67718 10.1674 9.13144 9.81897C9.31651 9.67959 9.48475 9.55764 9.66982 9.29631C9.85489 9.03497 9.87171 8.66911 9.72029 8.37294C9.61935 8.16387 9.35016 7.81543 8.72766 7.81543C7.92008 7.81543 7.65089 8.33809 7.5836 8.77364C7.54995 8.93044 7.43218 9.03497 7.28076 9.03497H6.72555C6.64143 9.03497 6.54048 9.00013 6.49001 8.93044C6.43954 8.86075 6.40589 8.77364 6.42271 8.68653C6.55731 7.67605 7.24711 6.61331 8.74448 6.61331C9.653 6.61331 10.4101 7.06628 10.7802 7.83285C11.1504 8.56458 11.0831 9.40084 10.6288 10.028ZM16.7192 13.9654H13.1861C12.8665 13.9654 12.6141 13.7041 12.6141 13.3731C12.6141 13.042 12.8665 12.7807 13.1861 12.7807H16.7361C17.0557 12.7807 17.3081 13.042 17.3081 13.3731C17.3081 13.7041 17.0389 13.9654 16.7192 13.9654ZM16.7192 10.9514H13.1861C12.8665 10.9514 12.6141 10.6901 12.6141 10.3591C12.6141 10.028 12.8665 9.7667 13.1861 9.7667H16.7361C17.0557 9.7667 17.3081 10.028 17.3081 10.3591C17.3081 10.6901 17.0389 10.9514 16.7192 10.9514ZM16.7192 7.93738H13.1861C12.8665 7.93738 12.6141 7.67605 12.6141 7.34503C12.6141 7.01402 12.8665 6.75268 13.1861 6.75268H16.7361C17.0557 6.75268 17.3081 7.01402 17.3081 7.34503C17.3081 7.67605 17.0389 7.93738 16.7192 7.93738Z" fill="black"/>
</g>
<defs>
<clipPath id="clip0_3_514">
<rect width="24" height="24" fill="white"/>
</clipPath>
</defs>
</svg>
