<svg width="24" height="24" viewBox="0 0 24 24" fill="none" xmlns="http://www.w3.org/2000/svg">
<path d="M20.6204 17.6316H4.58777V4.79389C4.58777 4.34854 4.23924 4 3.79389 4C3.34854 4 3 4.34854 3 4.79389V18.4061C3 18.8515 3.34854 19.2 3.79389 19.2H20.6204C21.0464 19.2 21.4143 18.8515 21.4143 18.4061C21.4143 17.9608 21.0657 17.6316 20.6204 17.6316Z" fill="#666666"/>
<path d="M7.60841 13.4298L9.09937 11.9001L10.9389 15.4048C11.0744 15.6566 11.3455 15.8308 11.6359 15.8308C11.9264 15.8308 12.1781 15.6759 12.333 15.4242L14.5017 11.4935L17.0576 11.145C17.348 11.1062 17.5804 10.9126 17.6772 10.6609L18.839 7.73707L19.2456 8.64714C19.3812 8.91822 19.6716 9.09249 19.9621 9.09249C20.0782 9.09249 20.175 9.07312 20.2912 9.01504C20.6978 8.84077 20.8721 8.37605 20.6785 7.96943L19.4973 5.35541C19.3231 4.94879 18.8584 4.77452 18.4517 4.94879L15.8377 6.12994C15.4311 6.30421 15.2568 6.76892 15.4311 7.17554C15.6054 7.58217 16.0701 7.75644 16.4767 7.58217L17.3287 7.19491L16.3605 9.63465L13.8627 9.96383C13.611 10.0026 13.398 10.1381 13.2818 10.3705L11.6166 13.3717L9.97071 10.2155C9.85453 9.98319 9.64153 9.84765 9.38981 9.80892C9.13809 9.7702 8.88637 9.86701 8.71211 10.0413L6.48535 12.3261C6.17554 12.6359 6.19491 13.1394 6.50472 13.4492C6.81453 13.759 7.31797 13.7396 7.60841 13.4298Z" fill="#666666"/>
</svg>
