<svg width="24" height="24" viewBox="0 0 24 24" fill="none" xmlns="http://www.w3.org/2000/svg">
<path d="M21.5975 14.2038L19.9074 13.2278C20.078 12.3074 20.078 11.3631 19.9074 10.4427L21.5975 9.46671C21.7919 9.35563 21.8792 9.12551 21.8157 8.91127C21.3754 7.49887 20.6255 6.22136 19.6456 5.15809C19.4948 4.99543 19.2488 4.95575 19.0584 5.06684L17.3683 6.04283C16.6581 5.43184 15.8408 4.95972 14.9561 4.65026V2.70226C14.9561 2.48008 14.8013 2.28568 14.5831 2.23807C13.1271 1.91274 11.6353 1.92861 10.2507 2.23807C10.0325 2.28568 9.87777 2.48008 9.87777 2.70226V4.65423C8.997 4.96765 8.17971 5.43978 7.46558 6.04679L5.77942 5.07081C5.58502 4.95972 5.34301 4.99543 5.19224 5.16206C4.21229 6.22136 3.46245 7.49887 3.02206 8.91524C2.95462 9.12948 3.04587 9.35959 3.24027 9.47068L4.93039 10.4467C4.75979 11.3671 4.75979 12.3114 4.93039 13.2318L3.24027 14.2078C3.04587 14.3189 2.95858 14.549 3.02206 14.7632C3.46245 16.1756 4.21229 17.4531 5.19224 18.5164C5.34301 18.6791 5.58899 18.7187 5.77942 18.6077L7.46954 17.6317C8.17971 18.2427 8.997 18.7148 9.88174 19.0242V20.9762C9.88174 21.1984 10.0365 21.3928 10.2547 21.4404C11.7107 21.7657 13.2025 21.7499 14.5871 21.4404C14.8053 21.3928 14.96 21.1984 14.96 20.9762V19.0242C15.8408 18.7108 16.6581 18.2387 17.3722 17.6317L19.0623 18.6077C19.2568 18.7187 19.4988 18.683 19.6495 18.5164C20.6295 17.4571 21.3793 16.1796 21.8197 14.7632C21.8792 14.545 21.7919 14.3149 21.5975 14.2038ZM12.4169 15.0092C10.6673 15.0092 9.24298 13.5849 9.24298 11.8353C9.24298 10.0856 10.6673 8.66133 12.4169 8.66133C14.1666 8.66133 15.5909 10.0856 15.5909 11.8353C15.5909 13.5849 14.1666 15.0092 12.4169 15.0092Z" fill="#666666"/>
</svg>
