<svg width="24" height="24" viewBox="0 0 24 24" fill="none" xmlns="http://www.w3.org/2000/svg">
<path d="M12.197 8.63153C11.2241 8.63153 10.4274 9.42443 10.4274 10.4012C10.4274 11.3741 11.2241 12.1708 12.197 12.1708C13.1738 12.1708 13.9705 11.3741 13.9705 10.4012C13.9705 9.42443 13.1738 8.63153 12.197 8.63153Z" fill="#666666"/>
<path d="M9.43533 15.7792C9.50811 15.8558 9.6077 15.898 9.71494 15.898H14.683C14.7902 15.898 14.8898 15.8558 14.9626 15.7792C15.0354 15.7026 15.0699 15.5992 15.066 15.4919C14.9741 13.9789 13.7139 12.7915 12.197 12.7915C10.6802 12.7915 9.41999 13.9789 9.3319 15.4919C9.32423 15.5992 9.36255 15.7026 9.43533 15.7792Z" fill="#666666"/>
<path d="M17.3892 20.6201C18.4856 20.6201 19.3745 19.7312 19.3745 18.6347C19.3745 17.5383 18.4856 16.6494 17.3892 16.6494C16.2927 16.6494 15.4038 17.5383 15.4038 18.6347C15.4038 19.7312 16.2927 20.6201 17.3892 20.6201Z" fill="#666666"/>
<path d="M9.45067 5.07699C6.21013 6.22228 4 9.30578 4 12.8029C4 14.1666 4.33708 15.4996 4.98442 16.687C5.17211 16.4993 5.37894 16.3422 5.60494 16.2235C5.05336 15.174 4.76608 14.0018 4.76608 12.8029C4.76608 9.68115 6.71192 6.91942 9.58473 5.84307C9.50047 5.59411 9.45834 5.33745 9.45067 5.07699Z" fill="#666666"/>
<path d="M13.6028 3.58319C12.8252 2.8056 11.5689 2.8056 10.7951 3.58319C10.0175 4.35692 10.0175 5.6133 10.7951 6.39087C11.5689 7.16462 12.8252 7.16462 13.6028 6.39087C14.3765 5.6133 14.3765 4.35692 13.6028 3.58319Z" fill="#666666"/>
<path d="M20.3942 12.8029C20.3942 9.30578 18.1879 6.22228 14.9435 5.07699C14.9359 5.33745 14.8937 5.59411 14.8094 5.84307C17.6823 6.91561 19.6281 9.67732 19.6281 12.8029C19.6281 14.021 19.337 15.2046 18.7816 16.2618C18.9808 16.3767 19.1685 16.5184 19.337 16.687C19.3561 16.7061 19.3715 16.7253 19.3868 16.7444C20.0495 15.5417 20.3942 14.1972 20.3942 12.8029Z" fill="#666666"/>
<path d="M5.52441 17.2309C4.75065 18.0046 4.75065 19.261 5.52441 20.0386C6.30199 20.8123 7.55835 20.8123 8.33594 20.0386C9.10967 19.261 9.10967 18.0046 8.33594 17.2309C7.55835 16.4533 6.30199 16.4533 5.52441 17.2309Z" fill="#666666"/>
<path d="M15.2767 20.3986C15.1043 20.1956 14.9703 19.9735 14.8707 19.7398C14.028 20.0654 13.1202 20.2339 12.197 20.2339C11.2471 20.2339 10.3278 20.0615 9.46215 19.713C9.36255 19.9505 9.22848 20.1726 9.05994 20.3756C10.052 20.7932 11.1054 21 12.197 21C13.2619 21 14.3114 20.797 15.2767 20.3986Z" fill="#666666"/>
</svg>
