<svg width="24" height="24" viewBox="0 0 24 24" fill="none" xmlns="http://www.w3.org/2000/svg">
<path d="M9.76318 7.82623C9.76318 7.06678 10.3737 6.45139 11.1268 6.45139C11.8807 6.45139 12.4919 7.06678 12.4919 7.82623C12.4919 8.58551 11.8807 9.20125 11.1268 9.20125C10.3737 9.20125 9.76318 8.58534 9.76318 7.82623Z" fill="#666666"/>
<path d="M17.0376 15.3714H7.24365V15.949H7.92226V19.1948H8.49986V15.949H15.7812V19.1948H16.359V15.949H17.0376V15.3714Z" fill="#666666"/>
<path d="M8.61004 13.8639L8.63732 14.9662H12.8761L12.7605 13.1172L14.1981 14.9662H15.6039L12.1966 9.6848L9.0251 9.67954L6.83064 4.05983L6 4L8.40886 12.6757L8.61004 13.8639Z" fill="#666666"/>
</svg>
