<svg width="24" height="24" viewBox="0 0 24 24" fill="none" xmlns="http://www.w3.org/2000/svg">
<g clip-path="url(#clip0_3_570)">
<path d="M6.0216 12.48C6 12.3216 6 12.1608 6 12C6 10.7407 6.39622 9.51333 7.13254 8.49174C7.86887 7.47014 8.90796 6.70612 10.1026 6.3079C11.2973 5.90967 12.587 5.89744 13.789 6.27292C14.991 6.6484 16.0444 7.39256 16.8 8.4H13.92V9.84H18.48C18.671 9.84 18.8541 9.76414 18.9891 9.62911C19.1241 9.49409 19.2 9.31095 19.2 9.12V4.56H17.76V7.3032C16.7891 6.11567 15.4749 5.25724 13.9974 4.84545C12.5198 4.43365 10.951 4.48862 9.50588 5.00283C8.06075 5.51703 6.80986 6.46534 5.92449 7.71792C5.03912 8.97049 4.56254 10.4661 4.56 12C4.56 12.1608 4.56 12.3216 4.5768 12.48H6.0216Z" fill="black"/>
<path d="M10.08 14.16H5.51999C5.32903 14.16 5.1459 14.2359 5.01087 14.3709C4.87584 14.5059 4.79999 14.689 4.79999 14.88V19.44H6.23999V16.6968C7.21086 17.8843 8.52505 18.7428 10.0026 19.1545C11.4802 19.5663 13.049 19.5114 14.4941 18.9972C15.9392 18.483 17.1901 17.5347 18.0755 16.2821C18.9609 15.0295 19.4374 13.5339 19.44 12C19.44 11.8392 19.44 11.6784 19.4232 11.52H17.9832C17.9952 11.6784 18.0048 11.8392 18.0048 12C18.0061 13.2605 17.6105 14.4895 16.8739 15.5124C16.1373 16.5353 15.0973 17.3003 13.9014 17.6988C12.7055 18.0972 11.4145 18.1089 10.2116 17.7322C9.00867 17.3554 7.95496 16.6094 7.19999 15.6H10.08V14.16Z" fill="black"/>
</g>
<defs>
<clipPath id="clip0_3_570">
<rect width="24" height="24" fill="white"/>
</clipPath>
</defs>
</svg>
