<svg width="24" height="24" viewBox="0 0 24 24" fill="none" xmlns="http://www.w3.org/2000/svg">
<path d="M12 12C14.525 12 16.5714 9.98555 16.5714 7.5C16.5714 5.01445 14.525 3 12 3C9.475 3 7.42857 5.01445 7.42857 7.5C7.42857 9.98555 9.475 12 12 12ZM15.4214 13.1461L13.7143 19.875L12.5714 15.0938L13.7143 13.125H10.2857L11.4286 15.0938L10.2857 19.875L8.57857 13.1461C6.03214 13.2656 4 15.3152 4 17.85V19.3125C4 20.2441 4.76786 21 5.71429 21H18.2857C19.2321 21 20 20.2441 20 19.3125V17.85C20 15.3152 17.9679 13.2656 15.4214 13.1461Z" fill="#666666"/>
</svg>
