<svg width="24" height="24" viewBox="0 0 24 24" fill="none" xmlns="http://www.w3.org/2000/svg">
<path fill-rule="evenodd" clip-rule="evenodd" d="M7.87914 7H11.9336C13.629 7 14.8127 8.16833 14.8127 9.84265V14.6574C14.8127 16.3317 13.629 17.5 11.9336 17.5H7.87914C6.18372 17.5 5 16.3317 5 14.6574V9.84265C5 8.16833 6.18372 7 7.87914 7ZM17.5706 8.66527C17.8779 8.50892 18.2384 8.52527 18.5317 8.71004C18.825 8.8941 19 9.2139 19 9.56355V14.9369C19 15.2872 18.825 15.6063 18.5317 15.7904C18.3714 15.8906 18.1922 15.9417 18.0116 15.9417C17.8611 15.9417 17.7106 15.9062 17.5699 15.8344L16.5331 15.3114C16.1495 15.1167 15.9115 14.7258 15.9115 14.2916V10.2081C15.9115 9.77319 16.1495 9.38233 16.5331 9.18903L17.5706 8.66527Z" fill="#130F26"/>
</svg>
